<svg id="logo" xmlns="http://www.w3.org/2000/svg" xmlns:xlink="http://www.w3.org/1999/xlink" width="40vw" height="100%" viewBox="0 0 252 252"><g id="surface1"><path style="stroke:none;fill-rule:nonzero;fill:#039;fill-opacity:1" d="M67.792969 193.75s8.253906-8.742188 10.75-11.148438c25.378906 19.132813 55.21875 21.09375 79.078125 10.035157l-4.859375-10.882813 7-3.125L164.625 188.886719c21.855469-13.15625 37.109375-38.089844 36.441406-70.914063l14.71875-1.382812C220.464844 205.703125 121.671875 242.1875 67.792969 193.75zM27.742188 129.480469 27.832031 132.019531H167.792969c-5.679688-11.417969-11.328125-22.835937-16.949219-34.253906C150.039062 96.070312 149.238281 93.976562 149.816406 93.53125 150.398438 93.082031 150.796875 93.574219 151.421875 93.929688c4.730469 2.8125 9.636719 11.0625 9.949219 11.597656 2.050781 3.433594 3.65625 6.199218 4.59375 7.851562L174.75 109.453125c-2.222656-5.628906-5.308594-10.882813-9.144531-15.566406-2.527344-3.082031-5.382813-5.878907-8.519531-8.339844C156.945312 85.425781 156.859375 85.25 156.851562 85.066406 156.84375 84.878906 156.910156 84.699219 157.042969 84.566406l2.585937-2.453125C159.734375 81.988281 159.882812 81.914062 160.042969 81.90625 160.203125 81.898438 160.363281 81.957031 160.476562 82.066406c4.164063 3.222656 7.910157 6.953125 11.152344 11.105469 3.328125 4.214844 6.113282 8.832031 8.292969 13.738281l10.394531-5.308594c-2.269531-5.824218-5.316406-11.3125-9.054687-16.324218-3.839844-5.136719-8.390625-9.703125-13.515625-13.558594C167.597656 71.605469 167.503906 71.433594 167.488281 71.25 167.46875 71.0625 167.53125 70.878906 167.65625 70.738281c1.160156-1.292969 1.917969-2.496093 2.902344-3.746093C170.796875 66.691406 171.230469 66.632812 171.539062 66.859375c4.683594 4.101563 10.792969 9.855469 16.144532 17.792969 5.121094 7.621094 9.078125 15.964844 11.730468 24.753906l14.761719-3.746094c-1.246093-4.90625-11.773437-44.734375-51.113281-62.039062-31.488281-13.828125-69.085938-7.761719-96.472656 15.476562 5.128906 1.292969 31.980468 8.339844 41.078125 31.042969 1.5625 3.835937 6.421875 15.96875.582031000000001 24.707031-5.84375 8.742188-20.027344 9.503906-25.824219 9.191406-5.800781-.3125-17.796875-6.378906-27.476562-5.578124-12.042969 1.785156-12.621094 7.808593-22.65625 11.019531C30.777344 129.59375 29.257812 129.59375 27.742188 129.480469zm125.957031 35.722656-7.003907 3.167969 3.167969 6.957031 6.957031-3.121094zm-4.730469-10.523437-7 3.121093 3.164062 7.003907 6.960938-3.125zm-4.949219-10.972657L137.0625 146.875l3.121094 6.957031 6.957031-3.121093zm0 0"/><path style="stroke:none;fill-rule:nonzero;fill:#039;fill-opacity:1" d="M56.199219 201.914062C57.3125 201.777344 58.292969 202.179688 59.5 203.25l2.628906 2.320312-13.511718 15.386719-2.632813-2.320312c-1.203125-1.023438-1.695313-1.917969-1.695313-3.078125.0-1.15625.492187999999999-2.183594 1.875-3.789063 1.382813-1.605469 1.917969-1.917969 3.34375-2.050781C50.007812 209.667969 50.515625 209.746094 50.980469 209.941406 50.679688 209.492188 50.507812 208.964844 50.488281 208.425781 50.445312 206.863281 51.335938 205.613281 52.316406 204.542969c1.652344-1.917969 2.675782-2.496094 3.882813-2.628907zm-9.234375 15.5625 1.472656 1.25 4.996094-5.707031-1.429688-1.25c-1.335937-1.160156-2.761718-1.027343-4.59375 1.070313C45.582031 214.9375 45.671875 216.320312 46.964844 217.476562zm6.023437-6.824218 1.425781 1.25 5.484376-6.289063-1.425782-1.246093c-1.382812-1.207032-2.765625-1.25-4.949218 1.203124-2.1875 2.453126-1.964844 3.835938-.535156999999998 5.082032zM53.609375 197.765625 38.492188 211.589844l-4.550782-5.039063 1.117188-1.027343 3.476562 3.835937 5.886719-5.351563-3.03125-3.300781 1.113281-1.023437 3.035156 3.300781 5.886719-5.398437L47.902344 193.75l1.160156-1.027344zm-6.597656-7.628906-16.191407 12.578125L29.839844 201.421875 45.984375 188.84375zm-6.558594-7.582031c1.070313.242187000000001 2 .902343000000002 2.585937 1.828124C43.757812 185.359375 43.957031 186.625 43.574219 187.773438L41.96875 187.417969C42.289062 186.707031 42.222656 185.882812 41.792969 185.230469 41.035156 184.070312 39.515625 183.757812 37.824219 184.875L24.398438 193.75 23.503906 192.410156l13.425782-8.875C38.132812 182.734375 39.339844 182.375 40.453125 182.554688zm-1.738281-4.683594L20.875 187.90625 20.070312 186.523438l17.886719-10.035157zm-5.574219-11.285156-12.355469 11.554687 14.585938-6.558594L36.039062 173.054688l-18.6875 8.429687L16.679688 179.96875l12.355468-11.507812-14.585937 6.554687L13.78125 173.546875l18.6875-8.386719zm-2.988281-8.875C30.546875 158.738281 30.449219 159.890625 29.882812 160.832031c-.9375 1.609375-2.40625 2.230469-8.429687 4.105469-6.019531 1.875-7.539063 2.273438-9.230469 1.515625-1.953125-1.046875-2.753906-3.429687-1.832031-5.441406.757813000000001-1.15625 1.917969-1.984375 3.257813-2.320313l.492187 1.519532c-1.5625.535156000000001-3.078125 1.46875-2.5 3.386718C11.8125 164.234375 12.277344 164.746094 12.890625 164.980469 14.09375 165.472656 15.253906 165.25 20.960938 163.421875c5.710937-1.828125 6.824218-2.320313 7.585937-3.390625C28.882812 159.464844 28.949219 158.777344 28.722656 158.15625c-.445312000000001-1.292969-1.828125-1.960938-3.65625-1.382812L20.25 158.292969 20.960938 160.609375 19.625 161.058594l-1.25-3.882813 6.199219-1.917969c2.902343-.9375 4.953125.402343999999999 5.578125 2.453126zm-5.21875-18.105469c.875.632812000000001 1.457031 1.601562 1.605468 2.675781C26.734375 143.347656 26.476562 144.445312 25.824219 145.3125 25.054688 146.25 23.953125 146.859375 22.746094 147.007812L6.691406 149.503906l-.222656-1.605468 16.1875-2.542969c1.695312-.265625 2.589844-1.515625 2.410156-2.851563-.179687000000001-1.339844-1.425781-2.1875-3.167968-1.917968l-16.1875 2.542968-.269532-1.609375L21.5 138.980469C22.679688 138.738281 23.910156 138.960938 24.933594 139.605469zM25.023438 128.140625 9.320312 134.386719 25.289062 133.582031 25.378906 135.1875 4.90625 136.214844 4.816406 134.5625l15.699219-6.199219L4.550781 129.167969 4.460938 127.5625l20.472656-1.027344zM25.066406 123.191406l-20.515625-.625v-1.605468l20.515625.625zM25.601562 114.226562 25.46875 115.832031 4.683594 117.972656 4.816406 116.1875l17.707032-1.472656-17.082032-4.859375L5.621094 108.070312zM26.359375 108.515625 6.199219 104.679688l1.292969-6.691407 1.515624.3125-.980468 5.085938 7.804687 1.472656L16.636719 100.488281l1.515625.265625L17.304688 105.125l7.851562 1.519531L26.136719 101.558594l1.472656.265625zm4.460937-17.75H21.1875L20.425781 93.171875l8.789063 2.722656L28.722656 97.410156 9.1875 91.253906l1.117188-3.65625c.710937-2.273437 2.140624-3.746094 6.6875-2.320312 3.035156.9375 4.238281 2.1875 4.371093 3.882812h9.945313zM11.773438 88 11.105469 90.183594 19 92.636719 19.667969 90.496094C20.25 88.625 19.046875 87.597656 16.503906 86.839844 13.960938 86.082031 12.398438 86.125 11.773438 88zm23.105468-9.367188C35.234375 79.523438 35.191406 80.59375 34.609375 81.890625 34.199219 82.9375 33.378906 83.777344 32.335938 84.207031 31.132812 84.609375 30.105469 84.429688 28.054688 83.496094L28.722656 82.023438C30.152344 82.691406 31 82.871094 31.800781 82.601562c1.296875-.554687000000001 1.96875-1.996093 1.5625-3.34375C32.960938 78.367188 32.203125 77.875 30.773438 77.207031 28.410156 76.136719 27.429688 76.089844 26.09375 77.292969L24.398438 78.8125C22.792969 80.28125 21.453125 80.328125 18.644531 79.035156c-1.5625-.757812000000001-2.675781-1.742187-3.125-2.945312C14.914062 73.980469 15.960938 71.75 17.972656 70.871094 19.3125 70.425781 20.472656 70.695312 22.078125 71.453125L21.410156 72.925781C20.25 72.390625 19.402344 72.164062 18.554688 72.433594 17.894531 72.601562 17.359375 73.085938 17.128906 73.726562 16.824219 74.289062 16.773438 74.953125 16.992188 75.554688 17.304688 76.359375 18.152344 77.027344 19.3125 77.5625 21.453125 78.542969 22.210938 78.5 23.683594 77.207031L25.332031 75.6875c1.695313-1.515625 3.347657-1.246094 6.023438.0C33.316406 76.582031 34.433594 77.472656 34.878906 78.632812zm3.300782-4.148437L20.425781 64.269531 21.230469 62.84375 39.027344 73.058594zM27.875 55.394531 43.441406 66.1875l-.9375 1.339844L26.941406 56.6875l-1.875 2.722656L23.816406 58.515625l4.640625-6.6875 1.246094.890625zm15.121094-2.496093 6.511718 5.574218-1.070312 1.25-6.511719-5.621094L30.6875 48.929688l1.15625-1.339844 8.699219 4.28125-5.53125-7.984375 1.203125-1.382813zm20.828125-9.011719C63.765625 45.003906 63.1875 46.027344 62.265625 46.652344 61.433594 47.378906 60.316406 47.691406 59.230469 47.5c-1.785157-.3125-2.898438-1.472656-6.777344-6.421875-3.882813-4.949219-4.773437-6.289063-4.640625-8.117187C47.886719 31.859375 48.441406 30.847656 49.328125 30.195312 50.171875 29.492188 51.277344 29.183594 52.363281 29.347656c1.828125.3125 2.941407 1.472656 6.824219 6.421875 3.878906 4.953125 4.769531 6.289063 4.636719 8.117188zM52.09375 30.910156C51.441406 30.78125 50.765625 30.960938 50.265625 31.398438 49.726562 31.777344 49.394531 32.390625 49.375 33.050781c0 1.292969.625 2.320313 4.324219 7.046875C57.402344 44.824219 58.25 45.628906 59.5 45.941406 60.152344 46.078125 60.832031 45.894531 61.328125 45.449219 61.863281 45.0625 62.207031 44.460938 62.265625 43.800781c0-1.296875-.625-2.320312-4.328125-7.050781-3.703125-4.726562-4.59375-5.527344-5.84375-5.839844zm7.671875-5.976562 4.191406 6.777344L67.75 29.347656 68.554688 30.640625l-3.792969 2.363281 4.996093 8.074219L68.375 41.925781l-10.792969-17.4375 5.796875-3.570312L64.183594 22.210938zm23.640625-.9375L81.308594 24.84375l3.34375 8.429688L83.183594 33.851562 75.601562 14.808594l3.609376-1.429688C81.355469 12.53125 83.449219 12.667969 85.234375 17.128906 87.019531 21.585938 85.949219 23.015625 83.40625 23.996094zm-3.613281-9.1875L77.695312 15.609375l3.078126 7.804687 2.097656-.84375C84.699219 21.855469 84.699219 20.25 83.71875 17.75c-.984375-2.496094-2.097656-3.65625-3.925781-2.941406zm20.875 12.175781C99.503906 28.945312 96.988281 29.617188 95 28.5c-1.515625-1.023438-2.09375-2.542969-3.746094-8.5625-1.648437-6.023438-1.917968-7.671875-1.070312-9.324219.5-.980469000000001 1.417968-1.6875 2.5-1.914062C93.730469 8.339844 94.882812 8.488281 95.804688 9.097656c1.5625.980468999999999 2.097656 2.542969 3.746093 8.566406 1.652344 6.019532 1.917969 7.667969 1.117188 9.320313zM94.957031 10.4375C94.398438 10.046875 93.683594 9.949219 93.039062 10.167969c-.636718000000002.152343-1.175781.578125-1.472656 1.160156-.488281000000001 1.203125-.3125 2.363281 1.25 8.164063 1.5625 5.796874 2.007813 6.910156 3.078125 7.671874C96.421875 27.550781 97.105469 27.652344 97.722656 27.429688 98.386719 27.308594 98.949219 26.878906 99.238281 26.269531c.492187999999999-1.203125.3125-2.363281-1.25-8.160156-1.558593-5.800781-2.003906-6.914063-3.03125-7.671875zm17.484375 14.359375C111.90625 25.601562 111.015625 26.136719 109.632812 26.359375 108.25 26.582031 107.265625 26.402344 106.417969 25.78125c-.84375-.625-1.425781-1.742188-1.828125-3.972656l1.605468-.265625C106.464844 23.105469 106.777344 23.90625 107.445312 24.441406 108 24.835938 108.695312 24.980469 109.363281 24.84375 110.253906 24.664062 110.789062 24.351562 111.101562 23.863281 111.414062 23.371094 111.59375 22.121094 111.324219 20.5625 110.925781 18.019531 110.390625 17.171875 108.648438 16.726562L106.417969 16.191406c-2.09375-.535156000000001-2.851563-1.605468-3.34375-4.640625C102.761719 9.8125 102.984375 8.339844 103.742188 7.316406c.625-.855468 1.582031-1.40625 2.632812-1.519531 1.066406-.25 2.191406-.0234370000000004 3.078125.625 1.113281.847656 1.515625 1.964844 1.785156 3.703125l-1.605469.265625C109.453125 9.144531 109.140625 8.339844 108.472656 7.761719 107.953125 7.324219 107.257812 7.160156 106.597656 7.316406 105.964844 7.378906 105.382812 7.699219 104.992188 8.207031 104.5 8.964844 104.457031 9.992188 104.636719 11.238281 105.039062 13.605469 105.484375 14.226562 107.355469 14.675781l2.1875.578125c2.230469.535155999999999 2.898437 2.050782 3.390625 4.949219C113.289062 22.34375 113.15625 23.726562 112.441406 24.796875zm7.269532-18.863281 1.472656 18.910156L119.578125 24.933594 118.105469 6.019531 114.847656 6.289062 114.714844 4.773438l8.117187-.625L122.96875 5.664062zm15.609374 17.570312C134.699219 24.21875 133.714844 24.621094 132.289062 24.621094c-1.425781.0-2.363281-.3125-3.078124-1.070313C128.496094 22.792969 128.050781 21.585938 128.050781 19.355469h1.605469C129.703125 20.917969 129.835938 21.765625 130.460938 22.390625 130.945312 22.867188 131.613281 23.109375 132.289062 23.058594 132.980469 23.105469 133.65625 22.863281 134.164062 22.390625 134.785156 21.675781 134.921875 20.785156 134.921875 19.132812c0-2.539062-.402343999999999-3.476562-2.097656-4.191406l-2.050781-.890625C128.765625 13.203125 128.183594 12.042969 128.183594 8.964844 128.140625 7.179688 128.585938 5.796875 129.480469 4.90625 130.238281 4.160156 131.269531 3.753906 132.332031 3.792969 133.425781 3.734375 134.496094 4.140625 135.277344 4.90625 136.257812 5.886719 136.480469 7.089844 136.480469 8.875h-1.648438C134.832031 7.582031 134.699219 6.734375 134.117188 6.066406 133.660156 5.566406 133.011719 5.289062 132.332031 5.308594 131.695312 5.265625 131.074219 5.511719 130.636719 5.976562c-.621093999999999.625-.84375 1.695313-.84375 2.945313.0 2.363281.308593000000002 3.03125 2.09375 3.835937L133.984375 13.648438C136.125 14.496094 136.527344 16.144531 136.527344 19.089844c0 2.140625-.3125 3.523437-1.207032 4.414062zm18.644532 4.773438.3125-5.707032-4.414063-1.117187L147.5 26.628906 145.804688 26.226562l9.230468-18.824218L156.507812 7.804688 155.617188 28.722656zm1.027344-17.707032-4.417969 9.5 3.792969.9375zM164.3125 31.800781 164.667969 14.898438l-5.441407 15.03125L157.667969 29.347656l7-19.222656L166.1875 10.660156l-.3125 16.859375 5.441406-15.03125 1.515625.578125-7.003906 19.269532zm11.820312 4.105469C175.105469 36.273438 173.972656 36.191406 173.011719 35.679688l-3.570313-1.78125 9.097656-18.378907 3.570313 1.785157c1.003906.449218000000002 1.769531 1.3125 2.097656 2.363281.488281000000001 1.742187-.046875 3.167969-2.8125 8.742187-2.765625 5.578125-3.566406 6.824219-5.261719 7.496094zm6.511719-15.835938C182.445312 19.441406 181.992188 18.925781 181.394531 18.644531l-2.09375-1.027343-7.761719 15.609374 2.09375 1.027344C174.222656 34.578125 174.925781 34.628906 175.550781 34.386719c1.160157-.488281000000001 1.785157-1.46875 4.417969-6.734375 2.632812-5.261719 2.988281-6.332032 2.675781-7.582032zm15.746094 8.832032-11.019531 15.433594-1.292969-.9375L197.09375 27.964844l-2.675781-1.917969L195.3125 24.84375l6.644531 4.726562-.890625 1.203126zM193.125 48.792969l13.738281-15.253907 5.039063 4.550782L210.878906 39.25l-3.835937-3.480469L201.6875 41.65625l3.347656 2.988281-1.027344 1.160157-3.300781-2.988282L195.355469 48.75l3.835937 3.433594-1.027344 1.160156zm8.296875 7.894531 15.386719-13.511719 1.070312 1.203125-14.226562 12.53125 3.433594 3.882813-1.160157 1.023437zm6.957031 8.296875 16.816406-11.683594L229.074219 58.875 227.824219 59.722656l-2.988281-4.238281-6.511719 4.550781 2.589843 3.65625-1.296874.890625-2.539063-3.699219-6.511719 4.546876 2.941406 4.28125L212.261719 70.558594zm10.035156 15.03125c-2.015624-.773437000000001-3.074218-2.988281-2.40625-5.039063.621093999999999-1.742187 2.003907-2.585937 7.535157-5.53125C229.074219 66.5 230.589844 65.875 232.375 66.324219c1.070312.277343000000002 1.96875 1.011719 2.453125 2.003906.53125.90625.648437000000001 1.996094.3125 2.988281C234.738281 72.476562 233.714844 73.460938 232.375 74.21875L231.617188 72.789062C232.507812 72.300781 233.3125 71.675781 233.625 70.828125 233.847656 70.238281 233.78125 69.578125 233.445312 69.042969 233.199219 68.4375 232.660156 68.003906 232.019531 67.882812 230.726562 67.617188 229.609375 68.0625 224.300781 70.871094c-5.304687 2.8125-6.289062 3.480468-6.824219 4.640625C217.230469 76.121094 217.28125 76.8125 217.613281 77.382812 217.871094 77.980469 218.402344 78.410156 219.039062 78.542969 219.886719 78.765625 220.867188 78.453125 221.761719 77.964844L222.519531 79.390625c-1.472656.757812999999999-2.902343 1.070313-4.105469.625zm4.550782 10.167969c-1.03125-.394531999999998-1.832032-1.226563-2.1875-2.273438C220.320312 86.917969 220.335938 85.769531 220.824219 84.789062c.847656000000001-1.652343 2.273437-2.410156 8.117187-4.683593 5.84375-2.273438 7.402344-2.765625 9.144532-2.097657 1.019531.386718999999999 1.820312 1.203126 2.183593 2.230469.4375 1.027344.421875 2.195313-.0429689999999994 3.210938C239.378906 85.101562 237.90625 85.8125 232.0625 88.089844c-5.84375 2.273437-7.359375 2.765625-9.097656 2.09375zm15.832031-7.449219c.3125-.597656000000001.328125-1.304687.046875-1.914063C238.632812 80.183594 238.136719 79.6875 237.503906 79.480469 236.300781 79.125 235.140625 79.390625 229.519531 81.621094c-5.617187 2.230468-6.644531 2.765625-7.269531 3.835937C221.925781 86.046875 221.894531 86.757812 222.160156 87.375 222.398438 87.992188 222.882812 88.476562 223.5 88.714844 224.75 89.070312 225.90625 88.800781 231.484375 86.570312c5.574219-2.226562 6.644531-2.761718 7.3125-3.835937zm-13.335937 19.449219 15.96875-4.195313H230.234375L229.964844 97.054688l9.414062-5.398438-15.613281 4.148438-.3125-1.25 19.804687-5.21875L243.613281 90.585938l-10.835937 6.246093L245.265625 96.964844 245.621094 98.214844l-19.800782 5.214844zm2.007812 11.820312 16.324219-2.320312-11.105469-1.292969L232.554688 109.453125l9.988281-4.238281-16.011719 2.277344L226.355469 106.195312l20.292969-2.898437L246.828125 104.589844l-11.464844 4.953125 12.398438 1.605469L247.941406 112.394531l-20.292968 2.902344zm1.5625 11.148438C228.230469 124.421875 227.773438 123.382812 227.78125 122.296875 227.726562 121.226562 228.113281 120.179688 228.851562 119.398438 229.734375 118.570312 230.898438 118.109375 232.109375 118.105469L248.34375 117.660156v1.605469L231.972656 119.753906c-1.738281.046875-2.765625 1.160156-2.71875 2.5.0429689999999994 1.335938 1.113282 2.40625 2.898438 2.363282L248.519531 124.125v1.605469L232.375 126.222656C231.164062 126.324219 229.960938 125.9375 229.03125 125.152344zM227.511719 136.125l16.371093-4.191406-15.96875-1.25L228.050781 129.078125l20.425781 1.605469L248.386719 132.289062l-16.367188 4.191407 15.921875 1.207031L247.808594 139.292969l-20.429688-1.5625zm-.578125 4.550781 20.25 3.121094L246.914062 145.402344l-20.246093-3.167969zm-1.472656 11.058594C225 150.859375 224.871094 149.84375 225.105469 148.878906c.226562000000001-1.066406.890625-1.988281 1.828125-2.539062C228.585938 145.445312 230.191406 145.667969 236.300781 147.050781c6.109375 1.382813 7.625 1.917969 8.695313 3.4375C245.617188 151.386719 245.8125 152.507812 245.53125 153.5625c-.171875 1.042969-.792968999999999 1.953125-1.695312 2.5C242.8125 156.6875 241.339844 156.730469 239.824219 156.417969L240.179688 154.855469C241.207031 155.082031 242.230469 155.125 242.992188 154.722656c.5625-.320312000000001.953124000000003-.875 1.070312-1.515625C244.234375 152.574219 244.101562 151.898438 243.703125 151.378906 242.902344 150.398438 241.785156 149.996094 235.945312 148.65625c-5.84375-1.335938-7.050781-1.515625-8.207031-.933593999999999C227.140625 148.015625 226.726562 148.582031 226.621094 149.238281 226.445312 149.84375 226.542969 150.496094 226.890625 151.023438 227.425781 151.734375 228.359375 152.136719 229.386719 152.359375L229.03125 153.921875c-1.605469-.359375-2.898438-1.070313-3.570312-2.1875zm-4.371094 11.242187L226.753906 163.6875l1.652344-4.636719-4.953125-2.898437.625-1.785156L241.875 165.5625 241.339844 167.078125l-20.875-2.363281zm17.664062 2.316407-9.054687-5.394531-1.382813 4.011718zm-3.835937 13.292969-17.171875-8.074219L218.503906 168.90625l17.128906 8.117188 1.515626-3.210938L238.53125 174.480469l-3.746094 7.941406L233.402344 181.753906zm-19.625-3.34375 17.929687 9.988281-.890625 1.515625-17.886719-9.988282zm-5.664063 10.96875C209.410156 185.054688 209.6875 183.859375 210.386719 182.910156c.601562000000001-1.015625 1.605469-1.730468 2.765625-1.960937 1.871094-.3125 3.300781.445312000000001 8.519531 3.925781 5.21875 3.476562 6.464844 4.503906 6.867187 6.378906C228.769531 192.402344 228.511719 193.597656 227.824219 194.554688 227.203125 195.550781 226.207031 196.253906 225.058594 196.515625c-1.914063.3125-3.34375-.445312999999999-8.5625-3.925781-5.21875-3.476563-6.464844-4.503906-6.867188-6.378906zm15.253906 8.652343C225.570312 194.726562 226.167969 194.308594 226.53125 193.707031 226.96875 193.152344 227.117188 192.425781 226.933594 191.742188c-.355468999999999-1.292969-1.25-2.050782-6.242188-5.394532-4.996094-3.347656-6.066406-3.882812-7.359375-3.746094C212.632812 182.714844 212.023438 183.140625 211.679688 183.757812 211.234375 184.308594 211.070312 185.035156 211.234375 185.722656c.355468999999999 1.292969 1.25 2.050782 6.242187 5.394532 4.996094 3.347656 6.066407 3.882812 7.40625 3.746093zm-22.703124-.84375 16.011718 5.707031-12.265625-10.257812 1.117188-1.339844 15.742187 13.113282-1.113281 1.382812-16.011719-5.707031 12.265625 10.210937-1.117187 1.339844-15.742188-13.113281zm-6.867188 8.339844C195.355469 201.378906 195.800781 200.351562 196.871094 199.28125c1.070312-1.070312 2.097656-1.5625 3.167968-1.5625 1.070313.0 2.230469.535156000000001 3.835938 2.140625l-1.25 1.207031c-1.113281-1.117187-1.828125-1.605468-2.765625-1.5625C199.144531 199.542969 198.46875 199.863281 197.988281 200.394531c-.714843000000002.671875-.980468999999999 1.292969-.9375 1.875C197.09375 202.847656 197.585938 204.007812 198.699219 205.167969c1.785156 1.828125 2.722656 2.1875 4.550781 1.425781L205.480469 205.660156C207.621094 204.765625 208.871094 205.167969 211.054688 207.355469c1.207031 1.246093 1.875 2.585937 1.785156 3.921875C212.773438 212.410156 212.257812 213.46875 211.414062 214.222656c-.984374000000003.9375-2.007812 1.425782-3.035156 1.425782-1.023437.0-2.453125-.667968999999999-3.703125-1.960938l1.25-1.203125c.894531000000001.890625 1.605469 1.382813 2.542969 1.425781C209.195312 213.933594 209.894531 213.640625 210.386719 213.105469 210.875 212.652344 211.179688 212.03125 211.234375 211.367188c0-.9375-.535156000000001-1.871094-1.425781-2.765626-1.652344-1.695312-2.410156-1.917968-4.328125-1.113281l-2.230469.9375C201.019531 209.40625 199.59375 208.558594 197.496094 206.417969s-2.230469-2.722657-2.183594-4.058594zm0 0"/><path style="stroke:none;fill-rule:nonzero;fill:#039;fill-opacity:1" d="M83.496094 233.625c-1.472656 2.808594-2.722656 4.28125-3.792969 4.546875H79.347656C79.042969 238.171875 78.746094 238.082031 78.5 237.90625L76.9375 237.101562C76.394531 236.921875 75.957031 236.515625 75.734375 235.988281 75.527344 235.363281 75.660156 234.5625 76.136719 233.578125l8.027343-15.566406C84.476562 217.746094 84.699219 217.703125 84.878906 217.789062 85.054688 217.878906 85.101562 218.101562 85.101562 218.460938H85.054688l-3.03125 5.886718C84.027344 223.855469 85.941406 223.042969 87.6875 221.9375H87.730469C88.042969 221.984375 88.265625 222.070312 88.3125 222.25 88.355469 222.429688 88.355469 222.695312 88.089844 223.054688c-2.070313 1.285156-4.351563 2.191406-6.734375 2.675781l-4.195313 8.25C76.847656 234.648438 76.757812 235.140625 76.894531 235.496094 77.011719 235.757812 77.242188 235.953125 77.519531 236.03125L79.125 236.835938C79.261719 236.976562 79.46875 237.027344 79.660156 236.96875 80.371094 236.746094 81.355469 235.496094 82.558594 233.179688H82.601562C82.871094 233 83.046875 232.953125 83.226562 233.042969 83.40625 233.132812 83.449219 233.3125 83.496094 233.625zm20.558594-2.722656C104.285156 231.445312 104.285156 232.054688 104.054688 232.597656L103.164062 235.632812C103.03125 236.433594 102.71875 236.925781 102.273438 237.148438 101.851562 237.371094 101.351562 237.371094 100.933594 237.148438l-3.835938-1.070313-1.648437 6.019531C95.382812 242.582031 95.125 243.015625 94.734375 243.300781 94.539062 243.394531 94.324219 243.441406 94.109375 243.4375 93.789062 243.441406 93.46875 243.382812 93.171875 243.257812 92.460938 242.871094 91.8125 242.375 91.253906 241.785156H91.210938C91.105469 241.496094 91.121094 241.171875 91.253906 240.894531 91.414062 240.722656 91.648438 240.636719 91.878906 240.671875H91.96875c1.382812 1.425781 2.007812 1.605469 2.273438 1.515625C94.511719 242.097656 94.464844 241.964844 94.464844 241.695312l1.652344-5.886718-4.105469-1.160156C91.621094 234.664062 91.246094 234.5 90.988281 234.203125c-.3125-.488281000000001-.3125-1.25-.046875-2.320313L91.746094 228.984375c.445312000000001-1.160156 1.203125-1.605469 2.230468-1.335937l9.054688 2.496093C103.457031 230.253906 103.824219 230.527344 104.054688 230.902344zM103.03125 231.75C102.894531 231.527344 102.664062 231.378906 102.40625 231.347656l-8.519531-2.40625H93.484375C93.082031 228.941406 92.816406 229.164062 92.683594 229.65625L91.925781 232.375C91.792969 232.671875 91.777344 233.003906 91.878906 233.3125 91.957031 233.402344 92.074219 233.449219 92.191406 233.445312h.046875l9.050781 2.5C101.445312 236.054688 101.644531 236.085938 101.824219 236.03125 102.050781 235.945312 102.136719 235.675781 102.226562 235.230469L102.984375 232.507812C103.125 232.28125 103.144531 231.996094 103.03125 231.75zm3.613281-3.699219-6.824219-1.875C99.828125 225.25 99.769531 224.328125 99.640625 223.410156H99.597656C99.460938 223.097656 99.285156 222.964844 99.058594 222.964844 98.835938 222.964844 98.703125 223.1875 98.523438 223.542969 98.648438 224.296875 98.707031 225.058594 98.703125 225.820312l-6.554687-1.832031H92.011719C91.65625 224.261719 91.527344 224.738281 91.703125 225.148438H91.746094l14.496094 4.015624H106.332031C106.589844 229.121094 106.800781 228.929688 106.867188 228.671875 106.914062 228.425781 106.828125 228.171875 106.644531 228.003906zM93.171875 236.96875V236.878906C93.261719 236.480469 93.261719 236.210938 93.082031 236.078125 92.90625 235.945312 92.773438 235.945312 92.503906 236.078125H92.460938c-1.535157 1.5625-3.207032 2.980469-4.996094 4.234375h-.046875C87.152344 240.625 87.0625 240.847656 87.152344 241.074219 87.226562 241.28125 87.421875 241.421875 87.640625 241.429688H87.730469c1.976562-1.28125 3.800781-2.777344 5.441406-4.460938zm6.78125 1.027344H99.90625C99.714844 237.824219 99.445312 237.757812 99.195312 237.816406 99.015625 237.90625 98.925781 238.171875 98.882812 238.621094H98.925781c.625 1.738281 1.25 3.878906 1.875 6.375H100.84375C100.984375 245.117188 101.152344 245.195312 101.335938 245.21875H101.46875C101.691406 245.175781 101.824219 244.910156 101.871094 244.460938c-.488281999999998-2.195313-1.128906-4.359376-1.917969-6.464844zM81.441406 216.675781C81.441406 216.320312 81.398438 216.09375 81.21875 216.007812 81.042969 215.917969 80.820312 215.960938 80.550781 216.230469l-2.273437 4.324219-4.058594-2.09375C73.859375 218.546875 73.683594 218.636719 73.59375 218.859375S73.503906 219.261719 73.636719 219.574219L77.695312 221.625l-2.988281 5.84375c-2.082031.875-4.273437 1.476562-6.511719 1.785156H68.152344C67.839844 229.519531 67.660156 229.742188 67.707031 229.921875 67.75 230.101562 67.839844 230.277344 68.105469 230.414062h.046875c1.976562-.15625 3.917968-.625 5.753906-1.382812l-2.453125 4.769531C71.453125 234.203125 71.496094 234.425781 71.675781 234.472656H71.808594C72.007812 234.457031 72.195312 234.378906 72.34375 234.25h.046875l9.050781-17.621094zm87.285156 7.847657 10.882813-5.707032C179.714844 218.726562 179.867188 218.726562 179.96875 218.816406 180.324219 218.949219 180.816406 219.707031 181.21875 222.382812H181.261719C181.527344 222.652344 181.753906 222.742188 181.929688 222.695312 182.136719 222.632812 182.292969 222.460938 182.332031 222.25c-.535156000000001-2.765625-1.203125-4.324219-2.097656-4.726562C179.898438 217.335938 179.484375 217.351562 179.164062 217.566406L177.738281 218.324219C177.667969 216.976562 177.503906 215.636719 177.246094 214.3125 176.980469 214.042969 176.757812 213.910156 176.535156 214S176.265625 214.175781 176.175781 214.445312C176.511719 215.90625 176.632812 217.410156 176.535156 218.90625l-2.054687 1.070312c-1.238281-1.171874-2.5625-2.246093-3.96875-3.210937H170.421875C170.199219 216.808594 170.023438 216.898438 169.976562 217.078125 169.878906 217.328125 169.910156 217.613281 170.066406 217.835938H170.109375c1.167969.824218000000002 2.285156 1.71875 3.347656 2.675781l-3.078125 1.605469C169.28125 221.171875 168.085938 220.347656 166.8125 219.664062H166.722656C166.539062 219.722656 166.402344 219.878906 166.363281 220.066406 166.324219 220.28125 166.375 220.507812 166.5 220.691406H166.542969c1.160156.757812999999999 2.097656 1.378906 2.765625 1.917969L167.882812 223.367188C167.503906 223.550781 167.226562 223.894531 167.121094 224.300781c-.03125.503906999999998.09375 1 .359375 1.429688l1.472656 2.808593H168.996094C169.128906 228.628906 169.28125 228.691406 169.441406 228.71875H169.621094c.167968000000002-.164062000000001.265625-.390625.265625-.625l-1.335938-2.542969C168.148438 224.925781 168.460938 224.660156 168.726562 224.523438zM185.277344 225.507812C185.132812 225.3125 184.925781 225.171875 184.695312 225.105469H184.652344l-5.800782 3.03125C178.589844 227.929688 178.308594 227.75 178.003906 227.601562 177.738281 227.511719 177.605469 227.425781 177.558594 227.289062 177.550781 227.066406 177.652344 226.851562 177.828125 226.710938c1.203125-1.828126 1.828125-3.03125 1.828125-3.613282-.03125-.375-.25-.710937000000001-.582031000000001-.890625C178.71875 222.027344 178.140625 222.117188 177.382812 222.519531l-6.914062 3.613281C170.378906 226.359375 170.378906 226.613281 170.46875 226.84375 170.574219 227.046875 170.777344 227.183594 171.003906 227.203125H171.046875l6.824219-3.570313C178.09375 223.542969 178.183594 223.542969 178.183594 223.589844 178.183594 223.632812 178.316406 223.988281 176.578125 226.265625 176.132812 227.066406 176.222656 227.738281 176.933594 228.226562L177.78125 228.628906l-6.644531 3.433594C171.046875 232.292969 171.046875 232.546875 171.136719 232.777344 171.261719 232.980469 171.476562 233.113281 171.71875 233.132812H171.761719l7.089843-3.746093c1.605469 1.605469 2.367188 2.898437 2.277344 3.878906C181.058594 233.816406 180.746094 234.304688 180.28125 234.605469 179.476562 235.140625 178.453125 235.230469 177.246094 234.828125H177.113281C176.949219 234.976562 176.851562 235.1875 176.847656 235.40625 176.847656 235.585938 176.980469 235.765625 177.203125 235.988281 177.707031 236.160156 178.234375 236.25 178.765625 236.253906 179.496094 236.25 180.214844 236.066406 180.859375 235.71875c.765625-.40625 1.292969-1.148438 1.429687-2.003906.175781999999998-1.296875-.625-2.945313-2.410156-4.863282l5.398438-2.808593C185.332031 225.867188 185.332031 225.679688 185.277344 225.507812zm-17.664063 14.539063H167.570312c-3.746093-.757812999999999-7.40625-4.371094-10.929687-10.839844l7.226563-2.050781H163.957031C164.109375 226.953125 164.175781 226.695312 164.132812 226.441406 164.089844 226.21875 163.910156 226.085938 163.597656 225.953125H163.554688l-7.269532 2.050781-1.203125-4.324218h-.046875C154.8125 223.410156 154.589844 223.277344 154.410156 223.320312 154.234375 223.367188 154.097656 223.589844 154.054688 223.945312l1.203124 4.328126-6.421874 1.828124H148.746094C148.566406 230.292969 148.5 230.5625 148.570312 230.8125 148.664062 231.050781 148.859375 231.230469 149.105469 231.304688H149.148438l6.46875-1.828126c1.246093 6.46875.222656000000001 11.460938-3.125 14.808594H152.449219C152.34375 244.574219 152.359375 244.894531 152.492188 245.175781 152.640625 245.304688 152.832031 245.371094 153.027344 245.355469H153.207031c3.167969-3.125 4.460938-7.628907 3.878907-13.292969 3.167968 5.308594 6.691406 8.386719 10.484374 9.277344H167.65625C167.847656 241.183594 167.976562 240.960938 168.015625 240.714844 168.015625 240.4375 167.859375 240.179688 167.613281 240.046875zm-49.464843-7.714844-1.113282 12.976563C117.035156 246.066406 116.855469 246.601562 116.5 246.871094 116.304688 247.039062 116.042969 247.121094 115.785156 247.09375H115.429688L110.253906 246.648438C109.90625 246.683594 109.558594 246.550781 109.320312 246.289062 109.007812 245.980469 108.871094 245.445312 108.960938 244.640625l1.070312-13.023437C110.03125 231.125 110.203125 230.652344 110.523438 230.277344 110.816406 229.957031 111.253906 229.808594 111.683594 229.878906L113.734375 230.054688l.3125-3.613282C114.160156 226.246094 114.355469 226.113281 114.582031 226.085938 114.804688 226.085938 114.9375 226.265625 115.074219 226.53125l-.3125 3.613281L116.855469 230.324219c1.070312.175781000000001 1.472656.890625 1.292969 2.007812zm-7.667969 6.511719L110.03125 244.375C109.960938 244.675781 110.007812 244.996094 110.167969 245.265625 110.296875 245.355469 110.453125 245.402344 110.613281 245.398438L112.441406 245.53125 112.976562 239.066406zm5.574219 6.066406L116.5 239.378906 114.003906 239.15625 113.46875 245.621094 115.25 245.753906C115.433594 245.851562 115.648438 245.851562 115.832031 245.753906 116 245.507812 116.082031 245.207031 116.054688 244.910156zm-4.195313-13.738281C111.652344 231.148438 111.441406 231.210938 111.28125 231.347656 111.140625 231.5625 111.0625 231.808594 111.058594 232.0625L110.566406 237.59375l2.5.179687999999999.578125-6.46875zM114.671875 231.394531 114.136719 237.859375 116.632812 238.085938 117.078125 232.554688C117.164062 232.304688 117.144531 232.03125 117.035156 231.796875 116.882812 231.640625 116.671875 231.558594 116.457031 231.574219zm31.53125 10.035157C146.472656 243.660156 146.25 245.085938 145.582031 245.84375 145.222656 246.214844 144.710938 246.398438 144.199219 246.335938L139.023438 246.828125H138.667969C138.410156 246.828125 138.164062 246.75 137.953125 246.601562 137.550781 246.335938 137.328125 245.753906 137.238281 244.910156l-.265625-2.902344L132.199219 242.457031C131.867188 242.558594 131.507812 242.511719 131.21875 242.320312 130.832031 242.054688 130.609375 241.519531 130.550781 240.714844L129.703125 231.929688C129.632812 231.4375 129.726562 230.9375 129.96875 230.5 130.1875 230.144531 130.574219 229.921875 130.996094 229.921875L135.8125 229.476562 135.589844 227.113281C135.722656 226.753906 135.855469 226.578125 136.035156 226.578125 136.214844 226.578125 136.390625 226.710938 136.613281 227.023438L136.839844 229.386719 141.609375 228.941406C142.015625 228.875 142.433594 228.96875 142.769531 229.207031c.355468999999999.40625.53125.9375.492187999999999 1.472657L144.0625 239.511719C144.199219 240.761719 143.707031 241.429688 142.636719 241.519531L137.996094 241.964844 138.222656 244.460938C138.238281 244.839844 138.378906 245.199219 138.621094 245.488281 138.789062 245.570312 138.980469 245.589844 139.15625 245.53125L143.929688 245.085938C144.242188 245.164062 144.566406 245.0625 144.777344 244.820312 145.269531 244.375 145.355469 243.257812 145.132812 241.519531 145.269531 241.160156 145.445312 240.984375 145.625 240.984375S145.980469 241.117188 146.160156 241.429688zM135.902344 230.8125 131.398438 231.214844c-.3125.046875-.671875999999998.179687000000001-.625 1.027344l.3125 3.03125L136.304688 234.785156zM136.390625 236.078125 131.171875 236.566406l.359375 3.746094C131.574219 240.761719 131.710938 241.074219 131.886719 241.160156 132.066406 241.25 132.109375 241.25 132.332031 241.207031L136.839844 240.761719zm5.84375-4.90625C142.289062 230.90625 142.222656 230.628906 142.054688 230.414062 141.898438 230.273438 141.679688 230.222656 141.476562 230.277344L136.972656 230.679688 137.328125 234.695312 142.546875 234.203125zM142.949219 240.136719C143.082031 239.957031 143.082031 239.691406 142.992188 239.242188l-.3125-3.746094L137.460938 235.988281 137.910156 240.671875 142.414062 240.269531C142.601562 240.292969 142.792969 240.246094 142.949219 240.136719zm-18.734375-12.398438L121.183594 227.46875C120.203125 227.378906 119.667969 228.003906 119.578125 229.207031L118.0625 247.183594C118.195312 247.539062 118.328125 247.71875 118.507812 247.71875H118.550781C118.730469 247.71875 118.910156 247.585938 119.085938 247.273438l1.472656-17.664063C120.585938 229.351562 120.675781 229.109375 120.828125 228.894531 120.972656 228.765625 121.167969 228.703125 121.363281 228.71875L123.816406 228.941406C123.921875 228.925781 124.027344 228.980469 124.082031 229.074219 124.179688 229.351562 124.164062 229.65625 124.039062 229.921875 123.5625 231.875 122.890625 233.773438 122.03125 235.585938 121.804688 236.175781 121.804688 236.828125 122.03125 237.414062c1.425781 2.453126 2.050781 4.371094 1.828125 5.621094s-.222656000000001 1.515625-.625 1.875C122.894531 245.179688 122.457031 245.292969 122.03125 245.21875 121.410156 245.03125 120.84375 244.695312 120.378906 244.238281H120.335938C120.140625 244.222656 119.945312 244.289062 119.800781 244.417969 119.621094 244.550781 119.578125 244.820312 119.578125 245.21875H119.621094C120.023438 245.753906 120.828125 246.203125 122.03125 246.515625S124.484375 245.753906 124.839844 243.835938c.355468000000002-1.914063-.265625-4.367188-1.871094-7C122.816406 236.53125 122.851562 236.167969 123.054688 235.898438c.910156000000001-2 1.640624-4.074219 2.1875-6.199219C125.378906 229.226562 125.347656 228.722656 125.152344 228.273438 124.921875 227.976562 124.585938 227.785156 124.214844 227.738281zm0 0"/><path style="fill:none;stroke-width:2;stroke-linecap:butt;stroke-linejoin:miter;stroke:#039;stroke-opacity:1;stroke-miterlimit:10" d="M506.697591 283.104306c0 122.875589-99.61418 222.498528-222.498527 222.498528-122.884347.0-222.498528-99.622939-222.498528-222.498528.0-122.884347 99.614181-222.507285 222.498528-222.507285 122.884347.0 222.498527 99.622938 222.498527 222.507285zm0 0" transform="matrix(0.446018,0,0,0.446018,0,0)"/><path style="fill:none;stroke-width:4;stroke-linecap:butt;stroke-linejoin:miter;stroke:#039;stroke-opacity:1;stroke-miterlimit:10" d="M563.003162 282.5c0 154.912574-125.590588 280.503162-280.503162 280.503162S1.996838 437.412574 1.996838 282.5 127.587426 1.996838 282.5 1.996838 563.003162 127.587426 563.003162 282.5zm0 0" transform="matrix(0.446018,0,0,0.446018,0,0)"/></g></svg>