<?xml version="1.0" standalone="no"?><!DOCTYPE svg PUBLIC "-//W3C//DTD SVG 1.1//EN" "http://www.w3.org/Graphics/SVG/1.1/DTD/svg11.dtd"><svg t="1715826759816" class="icon" viewBox="0 0 1208 1024" version="1.1" xmlns="http://www.w3.org/2000/svg" p-id="4064" xmlns:xlink="http://www.w3.org/1999/xlink" width="235.9375" height="200"><path d="M0 513.171625C0 228.857361 224.951945 0 503.798627 0c277.284516 0 502.236461 228.857361 502.236461 513.171625 0 282.752098-224.951945 510.828375-502.236461 510.828375C224.951945 1024 0 795.142639 0 513.171625z" fill="#FBD870" p-id="4065"></path><path d="M95.292143 784.988558c-1.562166 0 16.402746-42.959573 39.835241-52.33257 35.929825-12.49733 161.684211-70.297483 453.809306-35.929825 1.562166 1.562166 106.227307-237.449275 136.68955-325.71167 120.286804-78.889397 203.081617-165.589626 230.419527-212.454615 17.964912 3.905416-9.372998 114.819222-32.024409 147.624714 118.724638-35.929825 231.981693-212.454615 235.887109-217.922197-55.456903 430.376812-381.168574 604.558352-336.646835 626.428681 102.321892 49.989321 241.354691 34.367658 320.244089 23.432494 39.83524-5.467582 64.829901-9.372998 64.829901-3.905416-7.029748 45.302822-234.324943 41.397407-234.324943 41.397407l-42.959573-1.562167c-92.167811 19.527079-248.384439 30.462243-329.617086-21.870328-151.53013-24.994661-309.308924-12.49733-413.974066 3.905416-53.894737 7.029748-92.167811 28.900076-92.167811 28.900076z" fill="#1D659D" p-id="4066"></path></svg>